<?xml version="1.0" encoding="UTF-8" standalone="no"?>
<!DOCTYPE svg PUBLIC "-//W3C//DTD SVG 1.1//EN" "http://www.w3.org/Graphics/SVG/1.1/DTD/svg11.dtd">
<svg width="100%" height="100%" viewBox="0 0 512 384" version="1.1" xmlns="http://www.w3.org/2000/svg" xmlns:xlink="http://www.w3.org/1999/xlink" xml:space="preserve" xmlns:serif="http://www.serif.com/" style="fill-rule:evenodd;clip-rule:evenodd;stroke-linejoin:round;stroke-miterlimit:2;">
    <g transform="matrix(1,0,0,1,0,-64)">
        <g>
            <g>
                <path d="M10.688,95.156C80.958,154.667 204.26,259.365 240.5,292.01C245.365,296.416 250.583,298.656 256,298.656C261.406,298.656 266.615,296.437 271.469,292.052C307.74,259.375 431.042,154.667 501.313,95.156C505.688,91.458 506.355,84.958 502.813,80.437C494.625,69.99 482.417,64 469.333,64L42.667,64C29.584,64 17.375,69.99 9.188,80.438C5.646,84.958 6.313,91.458 10.688,95.156Z" style="fill-rule:nonzero;"/>
                <path d="M505.813,127.406C502.032,125.646 497.584,126.26 494.438,128.948C416.51,195.01 317.052,279.688 285.76,307.885C268.197,323.739 243.822,323.739 226.218,307.864C192.864,277.812 81.176,182.864 17.562,128.947C14.395,126.259 9.937,125.666 6.187,127.405C2.417,129.156 0,132.927 0,137.083L0,405.333C0,428.865 19.135,448 42.667,448L469.334,448C492.865,448 512,428.865 512,405.333L512,137.083C512,132.927 509.583,129.146 505.813,127.406Z" style="fill-rule:nonzero;"/>
            </g>
        </g>
    </g>
</svg>
